# xmcd
#
# Track frame offsets:
#	150
#	4569
#	11996
#	25736
#	38018
#	44318
#	51425
#	64552
#	71575
#	86224
#	107028
#	122854
#	144632
#	157364
#	173991
#	196087
#	213637
#	222448
#	235979
#	244441
#	251468
#	260811
#	275051
#	288084
#	302525
#	320225
#
# Disc length: 4293 seconds
#
# Revision: 0
# Processed by: cddbd v1.5.2PL0 Copyright (c) Steve Scherf et al.
# Submitted via: EasyCDDAExtractor 10.2.0.1
#
DISCID=9410c31a
DTITLE=Various Artist - Da Crew 3 - Kill The Mansion
DYEAR=1900
DGENRE=Reggaeton
TTITLE0=Mensaje
TTITLE1=Intro
TTITLE2=Tienen Que Enterrarnos
TTITLE3=1-9-9-8
TTITLE4=No Me Podran Tumbar
TTITLE5=No Es Facil
TTITLE6=Gargolas
TTITLE7=Soy Aquel Que A Ti Te Canta
TTITLE8=Cantando En Tarima
TTITLE9=Representando
TTITLE10=Preparen Tus Ojos remix
TTITLE11=Adios Amigo
TTITLE12=Quien Llego
TTITLE13=No Picheen
TTITLE14=Sepultolero
TTITLE15=Solo Un Imperio
TTITLE16=Son Sonidos
TTITLE17=Quieren Declarar Guerra
TTITLE18=Lo Hago Original
TTITLE19=Advertencia
TTITLE20=Busquen La Manera
TTITLE21=Se Oye El Ritmo
TTITLE22=A Donde Vas
TTITLE23=7 Pies Bajo Tiera
TTITLE24=La Tierra Temblo
TTITLE25=Outro
EXTD=
EXTT0=
EXTT1=
EXTT2=
EXTT3=
EXTT4=
EXTT5=
EXTT6=
EXTT7=
EXTT8=
EXTT9=
EXTT10=
EXTT11=
EXTT12=
EXTT13=
EXTT14=
EXTT15=
EXTT16=
EXTT17=
EXTT18=
EXTT19=
EXTT20=
EXTT21=
EXTT22=
EXTT23=
EXTT24=
EXTT25=
PLAYORDER=
